# xmcd CD database file
#
# Track frame offsets:
#	150
#	14817
#	25699
#	38832
#	54748
#	66456
#	76288
#	88745
#	111103
#	129711
#	138870
#	148853
#	159732
#	175715
#	185624
#	200106
#	209866
#	222999
#	240257
#	253915
#	264498
#
# Disc length: 3867 seconds
#
# Revision: 1
# Processed by: cddbd v1.4PL0 Copyright (c) Steve Scherf et al.
# Submitted via: CDex 1.51
#
DISCID=480f1915
DTITLE=L. Armstrong, S. Vaughan, G. Miller - Swing and Blues
DYEAR=1900
DGENRE=Blues
TTITLE0=L. Armstrong - Stardust
TTITLE1=S. Vaughan - Broken hearted melody
TTITLE2=S. Vaughan - That old black magic
TTITLE3=G. Miller - Amapola
TTITLE4=G. Miller - Little brown jug
TTITLE5=S. Vaughan - Careless
TTITLE6=S. Vaughan - Mary contary
TTITLE7=L. Armstrong - C-jam blues
TTITLE8=L. Armstrong - Velma's blues
TTITLE9=G. Miller - Serenade in blue
TTITLE10=S. Vaughan - Are you certain
TTITLE11=S. Vaughan - Separate ways
TTITLE12=G. Miller - Green eyes
TTITLE13=G. Miller - Over the rainbow
TTITLE14=S. Vaughan - I've got the world on a string
TTITLE15=S. Vaughan - Sweet attection
TTITLE16=L. Armstrong - C'est si bon
TTITLE17=G. Miller - I'm getting sanitmental over you
TTITLE18=S. Vaughan - Misty
TTITLE19=S. Vaughan - Friendly enemies
TTITLE20=L. Armstrong - Maker town blues
EXTD=
EXTT0=
EXTT1=
EXTT2=
EXTT3=
EXTT4=
EXTT5=
EXTT6=
EXTT7=
EXTT8=
EXTT9=
EXTT10=
EXTT11=
EXTT12=
EXTT13=
EXTT14=
EXTT15=
EXTT16=
EXTT17=
EXTT18=
EXTT19=
EXTT20=
PLAYORDER=
